<svg xmlns="http://www.w3.org/2000/svg" xmlns:xlink="http://www.w3.org/1999/xlink" width="51.68" height="721.82" viewBox="0 0 51.68 721.82"><defs><clipPath id="clip-path" transform="translate(-0.31)"><polygon points="0 116.03 51.69 116.03 53 546.03 1.31 546.03 0 116.03" fill="none"/></clipPath></defs><title>Asset 2</title><g id="Layer_2" data-name="Layer 2"><g id="Layer_1-2" data-name="Layer 1"><g clip-path="url(#clip-path)"><path d="M43.51,39.11c1.8,15.26-19.2,251.92-26.2,325.83C13.69,403.1,5.57,716.38,9.84,721.74" transform="translate(-0.31)" fill="none" stroke="#231f20" stroke-width="0.25"/><path d="M.92,0C-2.48,15.32,12.6,219,27.66,305.4c6.54,37.54,30.65,404.93,22.56,410.29" transform="translate(-0.31)" fill="none" stroke="#231f20" stroke-width="0.25"/><path d="M15.66,214.14A11.52,11.52,0,1,0,4.14,202.62a11.52,11.52,0,0,0,11.52,11.52h0" transform="translate(-0.31)" fill="#e6cdb8"/><path d="M14.37,418.62A10.26,10.26,0,1,0,4.11,408.36a10.26,10.26,0,0,0,10.26,10.26h0" transform="translate(-0.31)" fill="#a41f35"/><path d="M35.8,150.78a7.94,7.94,0,1,0-7.94-7.94,7.94,7.94,0,0,0,7.94,7.94h0" transform="translate(-0.31)" fill="#3f2b2f"/><path d="M38.7,490.62A11.52,11.52,0,1,0,27.18,479.1h0A11.52,11.52,0,0,0,38.7,490.62" transform="translate(-0.31)" fill="#e6cdb8"/></g></g></g></svg>