<svg id="Layer_1" data-name="Layer 1" xmlns="http://www.w3.org/2000/svg" xmlns:xlink="http://www.w3.org/1999/xlink" width="51.69" height="721.79" viewBox="0 0 51.69 721.79"><defs><clipPath id="clip-path" transform="translate(0 0)"><rect width="51.69" height="721.79" fill="none"/></clipPath></defs><title>deco-background</title><g clip-path="url(#clip-path)"><path d="M43.2,39.08C45,54.34,24,291,17,364.91,13.38,403.07,5.26,716.35,9.53,721.71" transform="translate(0 0)" fill="none" stroke="#231f20" stroke-width="0.25"/><path d="M.61,0C-2.79,15.29,12.29,219,27.35,305.37,33.89,342.91,58,710.3,49.91,715.66" transform="translate(0 0)" fill="none" stroke="#231f20" stroke-width="0.25"/><path d="M15.35,214.11A11.52,11.52,0,1,0,3.83,202.59a11.52,11.52,0,0,0,11.52,11.52" transform="translate(0 0)" fill="#e6cdb8"/><path d="M14.06,418.59A10.26,10.26,0,1,0,3.8,408.33a10.26,10.26,0,0,0,10.26,10.26" transform="translate(0 0)" fill="#a41f35"/><path d="M35.49,150.75a7.94,7.94,0,1,0-7.94-7.94,7.94,7.94,0,0,0,7.94,7.94" transform="translate(0 0)" fill="#3f2b2f"/><path d="M45.1,584.19a6.48,6.48,0,1,0-6.48-6.48,6.48,6.48,0,0,0,6.48,6.48" transform="translate(0 0)" fill="#3f2b2f"/><path d="M8.95,645.75a6.4,6.4,0,1,0-6.41-6.4,6.4,6.4,0,0,0,6.41,6.4" transform="translate(0 0)" fill="#a41f35"/><path d="M38.39,490.59a11.52,11.52,0,1,0-11.52-11.52,11.52,11.52,0,0,0,11.52,11.52" transform="translate(0 0)" fill="#e6cdb8"/></g></svg>