<svg xmlns="http://www.w3.org/2000/svg" width="57.1" height="50.09" viewBox="0 0 57.1 50.09"><title>recreation-red</title><g id="Layer_2" data-name="Layer 2"><g id="Layer_1-2" data-name="Layer 1"><g id="Layer_2-2" data-name="Layer 2"><g id="Layer_1-2-2" data-name="Layer 1-2"><g id="Layer_2-2-2" data-name="Layer 2-2"><g id="Layer_1-2-2-2" data-name="Layer 1-2-2"><path d="M37.31,9.51a5.11,5.11,0,1,0-1.81-7,5.11,5.11,0,0,0,1.81,7Z" fill="#a31f34"/><path d="M45.66,27.1h-.83l-1.7-8.26.55-.2A2.39,2.39,0,1,0,42,14.16l-6,2.25-.27-2.19a4.4,4.4,0,0,0-.55-4.81,4.59,4.59,0,0,0-6.4-.69L16.4,18.78h0a3.29,3.29,0,0,0-1.09,3.16,1.9,1.9,0,0,0,.14,3.79l-.79,1.84a11.48,11.48,0,1,0,2.63,1.13l1.27-3h2.07l7,2.84L23.9,34.66a3.35,3.35,0,0,0,5.72,3.49h0L33,32.57l2.21,1.33a11.43,11.43,0,1,0,10.45-6.81Zm-34.13,20a8.57,8.57,0,1,1,2-16.88l-2.4,5.56A2.79,2.79,0,1,0,13.9,40h6a8.56,8.56,0,0,1-8.42,7.14ZM20,37.1H14l-.13-.2,2.31-5.55A8.55,8.55,0,0,1,20,37.1Zm14.55-7,.89-1.46a3.35,3.35,0,0,0-1.61-4.86L27.67,21.3l3.76-3,.21,1.7a2.39,2.39,0,0,0,3.21,2l5.58-2.09L42,27.71a11.47,11.47,0,0,0-5.32,3.75Zm9.11,5.5L39.2,32.94a8.55,8.55,0,0,1,3.39-2.4Zm2,11.48a8.53,8.53,0,0,1-8-11.7l5.16,3.12h0a2.8,2.8,0,1,0,3.73-2.62L45.36,30h.26a8.57,8.57,0,0,1,0,17.14Z" fill="#a31f34"/></g></g></g></g></g></g></svg>