<svg xmlns="http://www.w3.org/2000/svg" xmlns:xlink="http://www.w3.org/1999/xlink" width="80.92" height="80.92" viewBox="0 0 80.92 80.92"><defs><radialGradient id="radial-gradient" cx="40.46" cy="40.46" r="40.46" gradientUnits="userSpaceOnUse"><stop offset="0" stop-color="#a31f34"/><stop offset="0.54" stop-color="#a11e33"/><stop offset="0.76" stop-color="#9a1c30"/><stop offset="0.92" stop-color="#8e182a"/><stop offset="1" stop-color="#841526"/></radialGradient></defs><title>Asset 7</title><g id="Layer_2" data-name="Layer 2"><g id="Layer_1-2" data-name="Layer 1"><circle cx="40.46" cy="40.46" r="40.46" fill="url(#radial-gradient)"/><path d="M49.18,22.73a5.11,5.11,0,1,0-1.81-7,5.11,5.11,0,0,0,1.81,7Zm0,0" fill="#fff"/><path d="M57.53,40.32c-.28,0-.56,0-.83,0L55,32.06l.55-.2a2.39,2.39,0,1,0-1.67-4.48l-6,2.25-.27-2.19a4.4,4.4,0,0,0-.55-4.81,4.59,4.59,0,0,0-6.4-.69L28.27,32h0a3.29,3.29,0,0,0-1.09,3.16,1.9,1.9,0,0,0,.14,3.79l-.79,1.84a11.48,11.48,0,1,0,2.63,1.13l1.27-3H32.5l7,2.84-3.73,6.12a3.35,3.35,0,1,0,5.72,3.49l3.4-5.58,2.21,1.33a11.43,11.43,0,1,0,10.45-6.81Zm-34.13,20a8.57,8.57,0,1,1,2-16.88L23,49a2.79,2.79,0,1,0,2.77,4.19h6a8.56,8.56,0,0,1-8.42,7.14Zm8.42-10h-6l-.13-.2L28,44.57a8.55,8.55,0,0,1,3.79,5.75Zm14.55-7,.89-1.46A3.35,3.35,0,0,0,45.65,37l-6.11-2.48,3.76-3,.21,1.7a2.39,2.39,0,0,0,3.21,1.95l5.58-2.09,1.58,7.85a11.47,11.47,0,0,0-5.32,3.75Zm9.11,5.5-4.41-2.66a8.55,8.55,0,0,1,3.39-2.4Zm2.05,11.48a8.53,8.53,0,0,1-8-11.7l5.16,3.12h0a2.8,2.8,0,1,0,3.73-2.62l-1.19-5.92.26,0a8.57,8.57,0,0,1,0,17.14Zm0,0" fill="#fff"/></g></g></svg>