<svg xmlns="http://www.w3.org/2000/svg" xmlns:xlink="http://www.w3.org/1999/xlink" width="80.92" height="80.92" viewBox="0 0 80.92 80.92"><defs><radialGradient id="radial-gradient" cx="40.46" cy="40.46" r="40.46" gradientUnits="userSpaceOnUse"><stop offset="0" stop-color="#a31f34"/><stop offset="0.54" stop-color="#a11e33"/><stop offset="0.76" stop-color="#9a1c30"/><stop offset="0.92" stop-color="#8e182a"/><stop offset="1" stop-color="#841526"/></radialGradient></defs><title>Asset 3</title><g id="Layer_2" data-name="Layer 2"><g id="Layer_1-2" data-name="Layer 1"><circle cx="40.46" cy="40.46" r="40.46" fill="url(#radial-gradient)"/><g id="cutlery"><path d="M24.37,15.46c-2.49,0-5.78,6.69-5.78,11.8,0,3.37,1.13,5.2,2.81,6.05a3.71,3.71,0,0,1,2,3.66L21,61.73a3.4,3.4,0,1,0,6.77,0L25.34,37a3.71,3.71,0,0,1,2-3.66c1.68-.86,2.81-2.68,2.81-6.05C30.15,22.15,27,15.46,24.37,15.46Z" fill="#fff"/><path d="M46.56,15.46a.83.83,0,0,0-.83.83V26.5a.83.83,0,1,1-1.67,0V16.29a.83.83,0,0,0-.83-.83h0a.83.83,0,0,0-.83.83V26.5a.83.83,0,0,1-1.67,0V16.29a.83.83,0,0,0-.83-.83h0a.83.83,0,0,0-.83.83V26.5a.83.83,0,0,1-1.67,0V16.29a.83.83,0,0,0-.83-.83.79.79,0,0,0-.79.78v11c0,3.37,1.13,5.2,2.81,6.05a3.71,3.71,0,0,1,2,3.66L38.18,61.73a3.4,3.4,0,1,0,6.77,0L42.52,37a3.71,3.71,0,0,1,2-3.66c1.68-.86,2.81-2.68,2.81-6.05v-11A.78.78,0,0,0,46.56,15.46Z" fill="#fff"/><path d="M60.09,39.07a.57.57,0,0,0,.57-.57v-22a1,1,0,0,0-1-1,1.07,1.07,0,0,0-1,.77l-3.45,12A12.27,12.27,0,0,0,56.87,38.6a1.08,1.08,0,0,0,.89.47L55.54,61.73a3.4,3.4,0,1,0,6.77,0Z" fill="#fff"/></g></g></g></svg>