<svg xmlns="http://www.w3.org/2000/svg" width="43.79" height="49.99" viewBox="0 0 43.79 49.99"><title>restaurants-30</title><g id="Layer_2" data-name="Layer 2"><g id="Layer_1-2" data-name="Layer 1"><g id="Layer_2-2" data-name="Layer 2"><g id="Layer_1-2-2" data-name="Layer 1-2"><g id="Layer_2-2-2" data-name="Layer 2-2"><g id="Layer_1-2-2-2" data-name="Layer 1-2-2"><g id="cutlery"><path d="M5.78,0C3.29,0,0,6.69,0,11.8c0,3.37,1.13,5.2,2.81,6.05a3.71,3.71,0,0,1,2,3.66L2.41,46.27a3.4,3.4,0,1,0,6.77,0L6.75,21.54a3.71,3.71,0,0,1,2-3.66c1.68-.86,2.81-2.68,2.81-6C11.56,6.69,8.41,0,5.78,0Z" fill="#a31f34"/><path d="M28,0a.83.83,0,0,0-.83.83h0V11a.84.84,0,1,1-1.67,0V.83A.83.83,0,0,0,24.67,0h0a.83.83,0,0,0-.83.83h0V11a.84.84,0,1,1-1.67,0V.83A.83.83,0,0,0,21.31,0h0a.83.83,0,0,0-.83.83h0V11a.84.84,0,1,1-1.67,0V.83A.83.83,0,0,0,18,0h0a.79.79,0,0,0-.79.78v11c0,3.37,1.13,5.2,2.81,6a3.71,3.71,0,0,1,2,3.66L19.59,46.27a3.4,3.4,0,1,0,6.77,0L23.93,21.54a3.71,3.71,0,0,1,2-3.66c1.68-.86,2.81-2.68,2.81-6V.83A.78.78,0,0,0,28,0Z" fill="#a31f34"/><path d="M41.5,23.61a.57.57,0,0,0,.57-.57V1a1,1,0,0,0-1-1,1.07,1.07,0,0,0-1,.77l-3.45,12A12.27,12.27,0,0,0,38.28,23.1a1.08,1.08,0,0,0,.89.47L37,46.27a3.4,3.4,0,1,0,6.77,0Z" fill="#a31f34"/></g></g></g></g></g></g></g></svg>