<svg xmlns="http://www.w3.org/2000/svg" width="45.37" height="42.72" viewBox="0 0 45.37 42.72"><title>shopping-1</title><g id="Layer_2" data-name="Layer 2"><g id="Layer_1-2" data-name="Layer 1"><g id="Layer_2-2" data-name="Layer 2"><g id="Layer_1-2-2" data-name="Layer 1-2"><path d="M45.1,8.12a1.46,1.46,0,0,0-1.18-.6H15.78a1.46,1.46,0,0,0,0,2.91H41.93l-1,3.28H19a1.46,1.46,0,1,0,0,2.91H40l-1.2,3.76H20.67a1.45,1.45,0,1,0,0,2.91H37.81l-1,3.16H17.54L9.63,3.65a1.46,1.46,0,0,0-.84-.88L2,.1A1.45,1.45,0,1,0,.93,2.81L7.1,5.23,14.65,27a1.21,1.21,0,0,0-.74.73L11.73,33.8a1.21,1.21,0,0,0,1.14,1.62H14a4.37,4.37,0,1,0,6.49,0H30a4.37,4.37,0,1,0,6.49,0h1.36a1.22,1.22,0,0,0,0-2.43H14.6l1.35-3.76a1.45,1.45,0,0,0,.56.12H37.86a1.45,1.45,0,0,0,1.39-1L45.31,9.42A1.46,1.46,0,0,0,45.1,8.12Z" fill="#fff"/></g></g></g></g></svg>