<svg xmlns="http://www.w3.org/2000/svg" xmlns:xlink="http://www.w3.org/1999/xlink" width="80.92" height="80.92" viewBox="0 0 80.92 80.92"><defs><radialGradient id="radial-gradient" cx="40.46" cy="40.46" r="40.46" gradientUnits="userSpaceOnUse"><stop offset="0" stop-color="#a31f34"/><stop offset="0.54" stop-color="#a11e33"/><stop offset="0.76" stop-color="#9a1c30"/><stop offset="0.92" stop-color="#8e182a"/><stop offset="1" stop-color="#841526"/></radialGradient></defs><title>Asset 4</title><g id="Layer_2" data-name="Layer 2"><g id="Layer_1-2" data-name="Layer 1"><circle cx="40.46" cy="40.46" r="40.46" fill="url(#radial-gradient)"/><path d="M61.89,26.38a1.46,1.46,0,0,0-1.18-.6H32.57a1.46,1.46,0,0,0,0,2.91H58.72l-1,3.28H35.77a1.45,1.45,0,1,0,0,2.91h21l-1.2,3.76H37.46a1.45,1.45,0,0,0,0,2.91H54.6l-1,3.16H34.33l-7.91-22.8a1.46,1.46,0,0,0-.84-.88l-6.8-2.67a1.45,1.45,0,0,0-1.06,2.71l6.17,2.42,7.55,21.77a1.21,1.21,0,0,0-.74.73l-2.18,6.07a1.21,1.21,0,0,0,1.14,1.62h1.12a4.37,4.37,0,1,0,6.49,0h9.52a4.37,4.37,0,1,0,6.49,0h1.36a1.21,1.21,0,1,0,0-2.43H31.39l1.35-3.76a1.45,1.45,0,0,0,.56.12H54.65a1.45,1.45,0,0,0,1.39-1L62.1,27.68a1.46,1.46,0,0,0-.21-1.3Z" fill="#fff"/></g></g></svg>